<?xml version="1.0" encoding="UTF-8" standalone="no"?>
<!-- Created with Inkscape (http://www.inkscape.org/) -->

<svg
   xmlns:dc="http://purl.org/dc/elements/1.1/"
   xmlns:cc="http://creativecommons.org/ns#"
   xmlns:rdf="http://www.w3.org/1999/02/22-rdf-syntax-ns#"
   xmlns:svg="http://www.w3.org/2000/svg"
   xmlns="http://www.w3.org/2000/svg"
   xmlns:sodipodi="http://sodipodi.sourceforge.net/DTD/sodipodi-0.dtd"
   xmlns:inkscape="http://www.inkscape.org/namespaces/inkscape"
   width="141.88434mm"
   height="76.171806mm"
   viewBox="0 0 141.88433 76.171806"
   version="1.1"
   id="svg8"
   inkscape:version="0.92.4 (5da689c313, 2019-01-14)"
   sodipodi:docname="full-logo.svg"
   inkscape:export-filename="C:\Users\Tom\Documents\GitHub\recover-merger\merger\src\assets\logo-full.png"
   inkscape:export-xdpi="250"
   inkscape:export-ydpi="250">
  <defs
     id="defs2" />
  <sodipodi:namedview
     id="base"
     pagecolor="#ffffff"
     bordercolor="#666666"
     borderopacity="1.0"
     inkscape:pageopacity="0.0"
     inkscape:pageshadow="2"
     inkscape:zoom="2.8284271"
     inkscape:cx="387.6593"
     inkscape:cy="182.80497"
     inkscape:document-units="mm"
     inkscape:current-layer="layer1"
     showgrid="false"
     fit-margin-top="0"
     fit-margin-left="0"
     fit-margin-right="0"
     fit-margin-bottom="0"
     inkscape:window-width="3840"
     inkscape:window-height="2068"
     inkscape:window-x="-12"
     inkscape:window-y="-12"
     inkscape:window-maximized="1" />
  <metadata
     id="metadata5">
    <rdf:RDF>
      <cc:Work
         rdf:about="">
        <dc:format>image/svg+xml</dc:format>
        <dc:type
           rdf:resource="http://purl.org/dc/dcmitype/StillImage" />
        <dc:title></dc:title>
      </cc:Work>
    </rdf:RDF>
  </metadata>
  <g
     inkscape:label="Layer 1"
     inkscape:groupmode="layer"
     id="layer1"
     transform="translate(-52.518462,-14.095206)">
    <path
       style="fill:#d66a56;fill-opacity:1;stroke:none;stroke-width:0.26458332px;stroke-linecap:butt;stroke-linejoin:miter;stroke-opacity:1"
       d="M 77.107258,64.074606 63.743781,76.903542 80.448126,38.95127 83.655361,46.702086 91.138906,39.48581 88.599848,60.466468 93.410697,71.558153 99.023357,24.785986 86.328057,36.14494 83.1299,30.908329 86.99623,14.629744 74.033657,27.19141 81.249935,23.182369 54.389349,90.267016 Z"
       id="path815"
       inkscape:connector-curvature="0"
       sodipodi:nodetypes="ccccccccccccccc"
       inkscape:export-xdpi="250"
       inkscape:export-ydpi="250" />
    <path
       style="fill:#76d6af;fill-opacity:1;stroke:none;stroke-width:0.26458332px;stroke-linecap:butt;stroke-linejoin:miter;stroke-opacity:1"
       d="m 75.236373,63.540068 -13.36348,12.828937 16.70435,-37.952273 3.20723,7.750816 7.48355,-7.216276 -2.53906,20.980658 4.81085,11.091685 5.61266,-46.772167 -12.6953,11.358954 -3.19816,-5.236611 3.86633,-16.278585 -12.96257,12.561666 7.21628,-4.009041 -26.860591,67.084646 z"
       id="path815-3"
       inkscape:connector-curvature="0"
       sodipodi:nodetypes="ccccccccccccccc"
       inkscape:export-xdpi="250"
       inkscape:export-ydpi="250" />
    <text
       xml:space="preserve"
       style="font-style:normal;font-variant:normal;font-weight:normal;font-stretch:normal;font-size:4.23333311px;line-height:1.25;font-family:Arial;-inkscape-font-specification:'Arial, Normal';font-variant-ligatures:normal;font-variant-caps:normal;font-variant-numeric:normal;font-feature-settings:normal;text-align:start;letter-spacing:0px;word-spacing:0px;writing-mode:lr-tb;text-anchor:start;fill:#000000;fill-opacity:1;stroke:none;stroke-width:0.26458332"
       x="136.57474"
       y="3.8721352"
       id="text4567"><tspan
         sodipodi:role="line"
         id="tspan4565"
         x="136.57474"
         y="7.6853285"
         style="stroke-width:0.26458332"></tspan></text>
    <path
       style="opacity:1;vector-effect:none;fill:#d66a56;fill-opacity:1;stroke:none;stroke-width:0.26458332px;stroke-linecap:butt;stroke-linejoin:miter;stroke-miterlimit:4;stroke-dasharray:none;stroke-dashoffset:0;stroke-opacity:1"
       d="m 100.63683,41.237032 h 11.94168 v 4.137067 h -7.38235 v 1.66546 h 7.38235 v 4.500277 h -7.38235 v 1.653645 h 7.38235 v 4.393975 H 100.58958 V 41.237032 Z"
       id="path4580-0"
       inkscape:connector-curvature="0"
       sodipodi:nodetypes="cccccccccccccc" />
    <path
       style="opacity:1;vector-effect:none;fill:#76d6af;fill-opacity:1;stroke:none;stroke-width:0.26458332px;stroke-linecap:butt;stroke-linejoin:miter;stroke-miterlimit:4;stroke-dasharray:none;stroke-dashoffset:0;stroke-opacity:1"
       d="m 98.520136,40.178698 h 11.941684 v 4.137067 h -7.38235 v 1.66546 h 7.38235 v 4.500277 h -7.38235 v 1.653645 h 7.38235 v 4.393975 H 98.472886 V 40.178698 Z"
       id="path4580"
       inkscape:connector-curvature="0"
       sodipodi:nodetypes="cccccccccccccc" />
    <path
       inkscape:connector-curvature="0"
       style="opacity:1;vector-effect:none;fill:#d66a56;fill-opacity:1;stroke:none;stroke-width:0.26458332px;stroke-linecap:butt;stroke-linejoin:miter;stroke-miterlimit:4;stroke-dasharray:none;stroke-dashoffset:0;stroke-opacity:1"
       d="m 116.42398,41.25268 v 16.303397 h 4.62711 v -4.84415 l 2.08825,4.794022 h 5.32835 l -2.85615,-6.948929 c 3.00854,-1.159971 4.65132,-6.626612 -0.76843,-9.30434 z m 4.58112,3.720184 h 2.81895 c 0.4492,0.420807 0.54462,1.35704 0,1.97249 h -2.81895 z"
       id="path4582-7" />
    <path
       style="opacity:1;vector-effect:none;fill:#76d6af;fill-opacity:1;stroke:none;stroke-width:0.26458332px;stroke-linecap:butt;stroke-linejoin:miter;stroke-miterlimit:4;stroke-dasharray:none;stroke-dashoffset:0;stroke-opacity:1"
       d="m 114.3073,40.194346 v 16.303397 h 4.6271 v -4.84415 l 2.08825,4.794022 h 5.32835 l -2.85615,-6.948929 c 3.00854,-1.159971 4.65132,-6.626612 -0.76843,-9.30434 z m 4.58111,3.720184 h 2.81895 c 0.4492,0.420807 0.54462,1.35704 0,1.97249 h -2.81895 z"
       id="path4582"
       inkscape:connector-curvature="0" />
    <path
       style="opacity:1;vector-effect:none;fill:#d66a56;fill-opacity:1;stroke:none;stroke-width:0.26458332px;stroke-linecap:butt;stroke-linejoin:miter;stroke-miterlimit:4;stroke-dasharray:none;stroke-dashoffset:0;stroke-opacity:1"
       d="m 145.58294,44.051183 -3.00963,2.645833 c -8.46558,-3.97803 -7.26749,10.053149 0.13228,5.093229 l -4.96094,-2.315104 h 10.15338 c 0.96341,7.992008 -15.09119,13.256206 -16.07342,0 -0.55628,-7.507616 9.07534,-11.373749 13.75833,-5.423958 z"
       id="path4588-2"
       inkscape:connector-curvature="0"
       sodipodi:nodetypes="cccccsc" />
    <path
       style="opacity:1;vector-effect:none;fill:#76d6af;fill-opacity:1;stroke:none;stroke-width:0.26458332px;stroke-linecap:butt;stroke-linejoin:miter;stroke-miterlimit:4;stroke-dasharray:none;stroke-dashoffset:0;stroke-opacity:1"
       d="m 143.46625,42.992849 -3.00963,2.645833 c -8.46558,-3.97803 -7.26749,10.053149 0.13229,5.093229 l -4.96094,-2.315104 h 10.15338 c 0.9634,7.992008 -15.0912,13.256206 -16.07343,0 -0.55628,-7.507616 9.07534,-11.373749 13.75833,-5.423958 z"
       id="path4588"
       inkscape:connector-curvature="0"
       sodipodi:nodetypes="cccccsc" />
    <path
       style="opacity:1;vector-effect:none;fill:#d66a56;fill-opacity:1;stroke:none;stroke-width:0.26458332px;stroke-linecap:butt;stroke-linejoin:miter;stroke-miterlimit:4;stroke-dasharray:none;stroke-dashoffset:0;stroke-opacity:1"
       d="m 151.58043,41.255846 h 11.94167 v 4.137067 h -7.38235 v 1.66546 h 7.38235 v 4.500277 h -7.38235 v 1.653645 h 7.38235 V 57.60627 H 151.53318 V 41.255846 Z"
       id="path4580-5-8"
       inkscape:connector-curvature="0"
       sodipodi:nodetypes="cccccccccccccc" />
    <path
       style="opacity:1;vector-effect:none;fill:#76d6af;fill-opacity:1;stroke:none;stroke-width:0.26458332px;stroke-linecap:butt;stroke-linejoin:miter;stroke-miterlimit:4;stroke-dasharray:none;stroke-dashoffset:0;stroke-opacity:1"
       d="m 149.46374,40.197512 h 11.94168 v 4.137067 h -7.38235 v 1.66546 h 7.38235 v 4.500277 h -7.38235 v 1.653645 h 7.38235 v 4.393975 H 149.41649 V 40.197512 Z"
       id="path4580-5"
       inkscape:connector-curvature="0"
       sodipodi:nodetypes="cccccccccccccc" />
    <path
       inkscape:connector-curvature="0"
       style="opacity:1;vector-effect:none;fill:#d66a56;fill-opacity:1;stroke:none;stroke-width:0.26458332px;stroke-linecap:butt;stroke-linejoin:miter;stroke-miterlimit:4;stroke-dasharray:none;stroke-dashoffset:0;stroke-opacity:1"
       d="m 158.51702,21.973657 9.74044,9.740427 v 27.580788 l 6.76702,4.716419 V 58.269565 L 194.4028,71.803632 176.15233,51.092409 189.6864,54.270862 173.99917,31.714084 Z m 16.12217,16.15341 5.55108,8.40272 -5.11451,-0.974042 z"
       id="path4623-1" />
    <path
       style="opacity:1;vector-effect:none;fill:#76d6af;fill-opacity:1;stroke:none;stroke-width:0.26458332px;stroke-linecap:butt;stroke-linejoin:miter;stroke-miterlimit:4;stroke-dasharray:none;stroke-dashoffset:0;stroke-opacity:1"
       d="m 156.29436,21.920664 9.74042,9.740427 v 27.580788 l 6.76704,4.716417 v -5.741724 l 19.37832,13.534067 -18.25049,-20.711223 13.53407,3.178453 -15.68721,-22.556778 z m 16.12217,16.15341 5.55107,8.40272 -5.11452,-0.974042 z"
       id="path4623"
       inkscape:connector-curvature="0" />
  </g>
</svg>
